<svg xmlns="http://www.w3.org/2000/svg" version="1.1" xmlns:xlink="http://www.w3.org/1999/xlink" xmlns:svgjs="http://svgjs.dev/svgjs" width="1000" height="980" viewBox="0 0 1000 980"><g transform="matrix(1,0,0,1,-0.4207642786812471,0.3967611336032064)"><svg viewBox="0 0 252 247" data-background-color="#ff5858" preserveAspectRatio="xMidYMid meet" height="980" width="1000" xmlns="http://www.w3.org/2000/svg" xmlns:xlink="http://www.w3.org/1999/xlink"><g id="tight-bounds" transform="matrix(1,0,0,1,0.1060329447265076,-0.09999999999999432)"><svg viewBox="0 0 251.78791817160095 247.2" height="247.2" width="251.78791817160095"><g><svg viewBox="0 0 251.78791817160095 247.2" height="247.2" width="251.78791817160095"><g><svg viewBox="0 0 251.78791817160095 247.2" height="247.2" width="251.78791817160095"><g><svg viewBox="0 0 367.6171673819743 360.9186828213499" height="247.2" width="251.78791817160095"><g transform="matrix(1,0,0,1,0,113.71868282134987)"><svg viewBox="0 0 367.6171673819743 247.2" height="247.2" width="367.6171673819743"><g><svg viewBox="0 0 367.6171673819743 247.2" height="247.2" width="367.6171673819743"><g><svg viewBox="0 0 367.6171673819743 247.2" height="247.2" width="367.6171673819743"><g transform="matrix(1,0,0,1,0,0)"><svg width="367.6171673819743" viewBox="3.6500000953674316 -35.599998474121094 69.29999542236328 46.599998474121094" height="247.2" data-palette-color="#ffffff"><path d="M17.55 0.6L17.55 0.6Q13.5 0.6 10.35-1.1 7.2-2.8 5.43-6 3.65-9.2 3.65-13.55L3.65-13.55 3.65-35 8.45-35 8.45-13.05Q8.45-10.5 9.55-8.35 10.65-6.2 12.7-4.93 14.75-3.65 17.55-3.65L17.55-3.65Q20.35-3.65 22.38-4.93 24.4-6.2 25.5-8.35 26.6-10.5 26.6-13.05L26.6-13.05 26.6-35 31.4-35 31.4-13.55Q31.4-9.2 29.63-6 27.85-2.8 24.73-1.1 21.6 0.6 17.55 0.6ZM64.7 11L64.7 11Q62.2 11 60.27 10.03 58.35 9.05 57.25 7.15 56.15 5.25 56.15 2.6L56.15 2.6Q56.15 1.95 56.2 1.28 56.25 0.6 56.35-0.1L56.35-0.1Q52.25 0.15 48.75-1.05 45.25-2.25 42.65-4.63 40.05-7 38.6-10.38 37.15-13.75 37.15-17.8L37.15-17.8Q37.15-21.5 38.4-24.73 39.65-27.95 42-30.4 44.35-32.85 47.67-34.23 51-35.6 55.05-35.6L55.05-35.6Q59.1-35.6 62.4-34.25 65.7-32.9 68.05-30.48 70.4-28.05 71.67-24.9 72.95-21.75 72.95-18.1L72.95-18.1 72.95 2.05Q72.95 4.75 71.95 6.78 70.95 8.8 69.12 9.9 67.3 11 64.7 11ZM64.4 6.7L64.4 6.7Q66.05 6.7 67.1 5.53 68.15 4.35 68.15 2.15L68.15 2.15 68.15-9.75Q65.6-8.1 64.1-6.4 62.6-4.7 61.87-3.1 61.15-1.5 60.92-0.15 60.7 1.2 60.7 2.1L60.7 2.1Q60.7 3.55 61.22 4.58 61.75 5.6 62.6 6.15 63.45 6.7 64.4 6.7ZM55.05-4.2L55.05-4.2Q55.85-4.2 56.55-4.28 57.25-4.35 58.05-4.55L58.05-4.55Q58.75-6.25 60.02-8 61.3-9.75 63.27-11.48 65.25-13.2 68.15-14.7L68.15-14.7 68.15-18.1Q68.15-20.95 67.17-23.38 66.2-25.8 64.42-27.58 62.65-29.35 60.25-30.38 57.85-31.4 55.05-31.4L55.05-31.4Q52.2-31.4 49.82-30.38 47.45-29.35 45.67-27.5 43.9-25.65 42.92-23.18 41.95-20.7 41.95-17.8L41.95-17.8Q41.95-14.9 42.92-12.43 43.9-9.95 45.67-8.1 47.45-6.25 49.82-5.23 52.2-4.2 55.05-4.2Z" opacity="1" transform="matrix(1,0,0,1,0,0)" fill="#ffffff" class="undefined-text-0" data-fill-palette-color="primary" id="text-0"></path></svg></g></svg></g></svg></g></svg></g><g transform="matrix(1,0,0,1,98.6133051502146,0)"><svg viewBox="0 0 170.3905570815451 77.64627002134988" height="77.64627002134988" width="170.3905570815451"><g><svg xmlns="http://www.w3.org/2000/svg" xmlns:xlink="http://www.w3.org/1999/xlink" version="1.1" x="0" y="0" viewBox="5 29.493873596191406 90 41.01262664794922" enable-background="new 0 0 100 100" xml:space="preserve" height="77.64627002134988" width="170.3905570815451" class="icon-icon-0" data-fill-palette-color="accent" id="icon-0"><g fill="#ffffff" data-fill-palette-color="accent"><path d="M23.943 30.807L5 50.001l18.942 19.192c1.728 1.751 4.53 1.751 6.258 0.002 1.729-1.75 1.73-4.587 0.002-6.338L18.193 50.695l-3.624 2.289 15.634-15.841c0.864-0.875 1.295-2.021 1.295-3.168 0-1.147-0.433-2.295-1.297-3.17C28.473 29.056 25.671 29.057 23.943 30.807z" fill="#ffffff" data-fill-palette-color="accent"></path><path d="M76.057 30.808L95 50.001 76.058 69.193c-1.728 1.751-4.53 1.751-6.258 0.002-1.729-1.75-1.73-4.587-0.002-6.338l12.009-12.161 3.624 2.289L69.796 37.144c-0.864-0.875-1.295-2.021-1.295-3.168 0-1.147 0.433-2.295 1.297-3.17C71.527 29.056 74.329 29.057 76.057 30.808z" fill="#ffffff" data-fill-palette-color="accent"></path><path d="M60.899 32.352c-0.419-1.068-1.241-1.978-2.366-2.476-2.249-0.997-4.857 0.028-5.825 2.288l-13.82 32.062c-0.484 1.13-0.467 2.355-0.048 3.422 0.419 1.068 1.241 1.978 2.366 2.476 2.249 0.997 4.857-0.028 5.825-2.288l13.82-32.062C61.335 34.644 61.318 33.419 60.899 32.352z" fill="#ffffff" data-fill-palette-color="accent"></path></g></svg></g></svg></g><g></g></svg></g></svg></g></svg></g><defs><mask id="a055997a-0bcf-4c6e-babc-23a78c9bd90f"><rect width="640" height="400" fill="white"></rect><rect width="377.4202918454936" height="298.05517055999997" fill="black" x="131.2898540772532" y="50.97241472000002" id="transform-me" transform="matrix(1,0,0,1,-160,-20)"></rect></mask><mask id="a29d60c6-4481-474a-8a26-074254c751c6"><rect width="640" height="400" fill="white"></rect><rect width="377.4202918454936" height="298.05517055999997" fill="black" x="131.2898540772532" y="50.97241472000002" id="transform-me" transform="matrix(1,0,0,1,-160,-20)"></rect></mask></defs></svg><rect width="251.78791817160095" height="247.2" fill="none" stroke="none" visibility="hidden"></rect></g></svg></g></svg>